<?xml version="1.0" standalone="no"?>
<!DOCTYPE svg PUBLIC "-//W3C//DTD SVG 20010904//EN"
 "http://www.w3.org/TR/2001/REC-SVG-20010904/DTD/svg10.dtd">
<svg version="1.0" xmlns="http://www.w3.org/2000/svg"
 width="3464.000000pt" height="3464.000000pt" viewBox="0 0 3464.000000 3464.000000"
 preserveAspectRatio="xMidYMid meet">

<g transform="translate(0.000000,3464.000000) scale(0.100000,-0.100000)"
fill="#000000" stroke="none">
<path d="M23516 24588 c-28 -27 -154 -293 -646 -1363 -337 -731 -1013 -2198
-1503 -3260 -489 -1061 -899 -1952 -909 -1980 -23 -59 -14 -106 28 -146 l26
-24 586 -3 c671 -4 633 -8 677 82 13 28 110 240 214 471 l189 420 1444 3 1445
2 203 -452 c112 -249 210 -463 218 -476 34 -53 27 -52 647 -52 632 0 618 -1
650 60 8 16 15 44 15 62 0 31 -161 382 -2445 5338 -679 1473 -612 1350 -737
1350 -63 0 -71 -2 -102 -32z m663 -1238 c290 -630 969 -2104 1509 -3275 540
-1172 982 -2134 982 -2138 0 -4 -246 -6 -547 -5 l-548 3 -206 460 c-114 253
-214 472 -222 488 l-16 27 -1516 0 -1516 0 -48 -102 c-26 -57 -126 -277 -222
-490 l-174 -388 -548 0 -547 0 14 33 c7 17 174 381 371 807 460 998 1924 4175
2328 5053 l312 678 33 -3 33 -3 528 -1145z"/>
<path d="M23395 21792 c-120 -268 -371 -824 -557 -1237 -186 -412 -341 -758
-344 -767 -5 -17 53 -18 1120 -18 833 0 1126 3 1126 11 0 7 -65 156 -144 333
-692 1541 -968 2152 -974 2158 -4 4 -106 -212 -227 -480z m710 -862 c250 -557
455 -1016 455 -1021 0 -5 -413 -9 -939 -9 l-940 0 23 53 c50 112 888 1970 903
2003 l17 35 13 -24 c7 -14 217 -480 468 -1037z"/>
<path d="M1705 24578 c-59 -46 -55 200 -55 -3378 0 -3622 -5 -3339 62 -3380
32 -19 49 -20 568 -20 512 0 536 1 567 20 17 10 38 29 45 42 11 19 14 390 18
1985 l5 1962 255 -267 c1811 -1895 3649 -3811 3669 -3824 19 -13 46 -18 95
-18 64 0 70 2 102 34 l34 34 0 3330 0 3329 -22 28 c-43 55 -44 55 -603 55
-559 0 -560 0 -603 -55 l-22 -28 0 -1963 c0 -1080 -4 -1964 -8 -1964 -7 0
-750 774 -2891 3015 -432 451 -843 880 -916 953 l-131 132 -71 0 c-57 0 -75
-4 -98 -22z m2169 -2235 c1126 -1176 2052 -2139 2057 -2141 5 -2 9 814 9 2087
l0 2091 505 0 505 0 0 -3281 0 -3280 -24 3 c-23 3 -565 565 -3625 3762 l-506
528 -5 -2093 -5 -2094 -499 -3 c-393 -2 -501 0 -508 10 -9 16 -11 6532 -1
6541 3 4 16 7 28 7 16 0 567 -568 2069 -2137z"/>
<path d="M11240 24594 c-19 -2 -80 -9 -135 -15 -1288 -138 -2433 -1064 -2866
-2318 -125 -361 -182 -716 -182 -1126 1 -313 27 -537 98 -823 177 -719 609
-1386 1205 -1861 751 -599 1689 -850 2655 -710 1004 145 1920 762 2449 1649
253 424 400 848 463 1335 24 191 24 652 0 839 -74 556 -247 1020 -551 1481
-510 773 -1322 1320 -2216 1494 -214 42 -329 52 -610 56 -151 2 -291 1 -310
-1z m511 -124 c1125 -88 2131 -747 2679 -1756 352 -650 473 -1408 344 -2158
-127 -741 -563 -1476 -1169 -1971 -453 -370 -998 -621 -1536 -710 -366 -60
-813 -60 -1154 0 -893 158 -1692 688 -2198 1457 -271 412 -426 808 -509 1298
-20 123 -22 167 -23 510 0 411 8 494 75 775 142 591 451 1144 883 1577 699
702 1636 1053 2608 978z"/>
<path d="M11295 23453 c-938 -81 -1754 -754 -2015 -1662 -317 -1103 224 -2265
1276 -2743 418 -190 925 -246 1389 -153 699 141 1296 598 1618 1242 108 214
172 416 214 668 25 156 25 535 0 690 -58 349 -167 632 -354 917 -382 583
-1020 971 -1707 1037 -101 10 -328 12 -421 4z m525 -138 c204 -33 343 -72 509
-142 690 -288 1193 -909 1321 -1628 43 -236 44 -538 4 -769 -118 -689 -576
-1288 -1219 -1595 -187 -90 -358 -144 -571 -182 -112 -20 -161 -24 -369 -23
-256 0 -340 9 -537 60 -751 190 -1371 802 -1568 1548 -58 219 -64 278 -64 566
0 288 6 347 64 566 177 669 700 1244 1354 1489 172 64 361 106 581 129 82 8
403 -4 495 -19z"/>
<path d="M27631 24587 c-13 -6 -34 -25 -45 -40 l-21 -28 -3 -3299 c-2 -2623 0
-3306 10 -3336 8 -24 26 -47 47 -61 l34 -23 536 0 c576 0 565 -1 605 53 l21
28 5 1965 5 1965 170 -178 c1237 -1295 3530 -3690 3635 -3795 l135 -138 74 0
c69 0 75 2 106 33 24 24 35 46 40 78 3 24 5 1520 3 3324 -3 3231 -3 3280 -22
3312 -38 63 -41 63 -612 63 -558 0 -559 0 -602 -55 l-22 -28 0 -1963 c0 -1080
-3 -1964 -8 -1964 -4 0 -372 381 -818 848 -2617 2736 -3080 3219 -3103 3234
-31 21 -133 24 -170 5z m1676 -1744 c862 -901 1784 -1863 2047 -2138 263 -275
483 -501 487 -503 5 -2 9 934 9 2087 l0 2091 510 0 510 0 -2 -3277 -3 -3278
-26 0 c-21 0 -382 372 -2080 2144 l-2054 2144 -5 -2094 -5 -2094 -502 -3 -503
-2 0 3280 0 3280 24 0 c19 0 354 -344 1593 -1637z"/>
<path d="M15989 24467 c-21 -14 -39 -37 -47 -61 -10 -30 -12 -696 -10 -3275 3
-3160 3 -3237 22 -3264 41 -61 -107 -57 2043 -57 1956 0 1968 0 2001 20 62 38
62 36 62 605 0 569 0 567 -62 605 -33 20 -46 20 -1420 20 l-1388 0 0 2660 c0
2928 5 2709 -62 2750 -32 19 -49 20 -569 20 l-536 0 -34 -23z m1079 -2819 l2
-2718 1435 0 1435 0 0 -500 0 -500 -1940 0 -1940 0 0 3220 0 3220 503 -2 502
-3 3 -2717z"/>
<path d="M7513 16525 c-17 -7 -40 -26 -50 -41 -17 -27 -18 -151 -21 -3274 -2
-2266 0 -3256 8 -3282 6 -20 24 -48 41 -63 l31 -25 553 2 c537 3 554 4 575 23
52 46 50 -11 50 1390 l0 1305 1153 0 c755 0 1165 4 1189 10 20 6 48 24 63 41
l25 31 -2 554 -3 554 -28 27 -27 28 -1185 3 -1185 2 0 740 0 740 1376 2 1376
3 34 37 34 38 0 541 c0 537 0 541 -21 571 -44 62 90 58 -2021 58 -1621 -1
-1938 -3 -1965 -15z m3875 -617 l-3 -503 -1407 -3 -1408 -2 0 -855 0 -855
1218 -2 1217 -3 0 -500 0 -500 -1217 -3 -1218 -2 -2 -1363 -3 -1362 -500 0
-500 0 -3 3215 c-1 1768 0 3221 3 3228 3 9 396 12 1915 12 l1910 0 -2 -502z"/>
<path d="M12426 16499 c-14 -11 -31 -30 -38 -42 -8 -17 -11 -824 -9 -3277 2
-2927 4 -3257 18 -3281 36 -61 21 -59 603 -59 586 0 571 -2 610 63 19 31 20
59 20 1230 l0 1197 307 -2 306 -3 108 -155 c59 -85 122 -175 139 -200 46 -65
347 -499 545 -785 94 -135 185 -267 203 -293 37 -52 299 -430 546 -785 99
-143 170 -236 190 -248 30 -18 60 -19 681 -19 622 0 651 1 681 19 20 12 38 36
49 64 15 39 15 48 2 78 -8 19 -93 142 -189 274 -159 219 -486 670 -977 1345
-101 140 -280 386 -396 545 -116 160 -214 296 -218 302 -5 8 25 29 90 62 391
201 699 517 893 916 145 298 204 556 204 890 -1 343 -61 608 -209 910 -120
246 -232 403 -424 595 -368 366 -825 590 -1345 660 -141 19 -206 20 -1256 20
-1106 0 -1107 0 -1134 -21z m2349 -118 c33 -5 89 -15 125 -21 276 -46 536
-147 799 -311 390 -243 704 -630 859 -1059 151 -415 147 -931 -8 -1333 -170
-440 -494 -807 -900 -1016 -63 -32 -143 -69 -177 -81 -35 -13 -63 -27 -63 -32
0 -4 31 -50 68 -101 66 -89 251 -343 282 -387 21 -30 352 -486 391 -540 19
-25 76 -103 128 -175 52 -71 148 -204 214 -295 66 -91 148 -203 182 -250 90
-125 287 -396 396 -545 119 -162 189 -262 189 -269 0 -3 -278 -6 -618 -6
l-619 0 -219 315 c-120 173 -278 399 -349 503 -72 103 -218 313 -325 467 -107
154 -293 423 -414 597 -122 175 -248 357 -281 405 -33 48 -79 113 -102 145
l-43 58 -389 0 c-345 0 -390 -2 -395 -16 -3 -9 -6 -569 -6 -1245 l0 -1229
-505 0 -505 0 0 3208 c0 2553 3 3211 13 3221 10 10 230 11 1112 8 680 -3 1123
-9 1160 -16z"/>
<path d="M13500 14340 l0 -1051 593 4 c555 4 597 6 672 25 224 57 390 148 540
297 134 133 235 300 285 475 28 94 38 323 21 426 -65 375 -340 682 -726 812
-160 54 -169 55 -797 59 l-588 5 0 -1052z m1240 916 c373 -85 660 -349 746
-686 27 -105 27 -326 0 -425 -86 -319 -347 -586 -671 -686 -123 -37 -174 -41
-682 -46 l-503 -5 0 937 0 937 518 -5 c438 -4 528 -7 592 -21z"/>
<path d="M18165 16485 l-35 -36 0 -3260 c0 -3001 1 -3263 16 -3289 9 -15 29
-35 44 -44 26 -15 191 -16 1977 -16 1911 0 1949 0 1980 20 60 36 58 17 58 605
0 588 2 569 -58 605 -31 19 -63 20 -1399 20 l-1368 0 0 770 0 770 1180 0 1180
0 38 34 37 34 3 541 c3 598 4 582 -61 621 -31 19 -59 20 -1204 20 l-1173 0 0
700 0 700 1368 2 c1491 3 1400 -1 1438 61 18 30 19 60 22 517 2 267 0 510 -3
539 -6 44 -14 62 -40 88 l-33 33 -1966 0 -1965 0 -36 -35z m3910 -585 l0 -495
-1407 -3 -1408 -2 0 -825 0 -825 1215 0 1215 0 -2 -502 -3 -503 -1212 -3
-1213 -2 0 -888 0 -887 1407 0 1408 0 3 -502 2 -503 -1915 0 -1915 0 0 3213
c0 1768 3 3217 7 3220 3 4 864 6 1912 5 l1906 -3 0 -495z"/>
<path d="M23345 16485 l-35 -36 0 -3262 c1 -2634 3 -3266 14 -3285 7 -13 26
-32 42 -43 28 -18 68 -19 1977 -19 2118 0 1983 -4 2021 54 14 23 16 81 16 573
0 602 3 576 -60 608 -25 13 -203 15 -1395 15 l-1365 0 0 770 0 770 1176 0
c1175 0 1176 0 1205 21 60 43 59 29 59 599 0 575 0 572 -62 610 -33 20 -47 20
-1205 20 l-1173 0 0 700 0 700 1348 0 c888 0 1360 4 1384 10 20 6 48 24 62 41
l26 31 0 545 0 546 -36 33 -35 34 -1964 0 -1964 0 -36 -35z m3910 -585 l0
-495 -1407 -3 -1408 -2 -2 -821 c-2 -451 -1 -823 1 -825 2 -2 550 -4 1218 -4
l1213 0 -2 -502 -3 -503 -1212 -3 -1213 -2 0 -880 c0 -484 0 -882 0 -885 0 -3
633 -6 1408 -8 l1407 -2 0 -500 0 -500 -1912 -3 -1913 -2 0 3213 c0 1768 3
3217 7 3220 3 4 864 6 1912 5 l1906 -3 0 -495z"/>
</g>
</svg>
