<?xml version="1.0" standalone="no"?>
<!DOCTYPE svg PUBLIC "-//W3C//DTD SVG 20010904//EN"
 "http://www.w3.org/TR/2001/REC-SVG-20010904/DTD/svg10.dtd">
<svg version="1.0" xmlns="http://www.w3.org/2000/svg"
 width="3464.000000pt" height="3464.000000pt" viewBox="0 0 3464.000000 3464.000000"
 preserveAspectRatio="xMidYMid meet">

<g transform="translate(0.000000,3464.000000) scale(0.100000,-0.100000)"
fill="#000000" stroke="none">
<path d="M23564 24453 c-19 -43 -1660 -3604 -2614 -5673 -199 -432 -369 -800
-376 -817 l-14 -33 550 0 c323 0 550 4 550 9 0 13 420 943 432 959 8 9 325 12
1525 12 l1514 0 16 -27 c8 -16 108 -235 222 -488 l206 -460 548 -3 547 -2 -34
72 c-18 40 -385 838 -816 1773 -431 935 -1097 2380 -1479 3210 -690 1497 -696
1510 -726 1513 -28 3 -32 -1 -51 -45z m477 -3103 c226 -503 476 -1060 555
-1236 79 -177 144 -326 144 -333 0 -8 -293 -11 -1125 -11 -766 0 -1125 3
-1125 10 0 6 244 552 542 1213 297 661 550 1222 560 1246 12 25 24 39 29 34 4
-4 193 -420 420 -923z"/>
<path d="M1775 24468 c-3 -7 -4 -1480 -3 -3273 l3 -3260 505 0 505 0 5 2089 5
2088 1115 -1163 c2694 -2811 3001 -3129 3020 -3129 20 0 20 23 20 3280 l0
3280 -505 0 -505 0 0 -2091 c0 -1312 -4 -2089 -9 -2087 -6 2 -245 248 -532
548 -3110 3248 -3575 3730 -3597 3730 -12 0 -25 -6 -27 -12z"/>
<path d="M11340 24473 c-1107 -50 -2106 -650 -2693 -1618 -226 -372 -364 -752
-439 -1200 -21 -129 -23 -169 -23 -515 1 -411 8 -487 75 -765 255 -1059 1038
-1944 2070 -2339 604 -230 1333 -270 1980 -106 396 100 777 279 1123 528 454
326 842 790 1078 1292 211 445 308 888 308 1395 0 527 -103 980 -328 1440
-337 687 -873 1224 -1555 1559 -398 196 -790 298 -1247 326 -157 9 -203 10
-349 3z m376 -1024 c687 -66 1325 -454 1707 -1037 187 -285 296 -568 354 -917
25 -155 25 -534 0 -690 -80 -482 -285 -894 -617 -1239 -467 -485 -1086 -737
-1750 -713 -444 17 -821 138 -1191 382 -484 321 -846 836 -974 1388 -78 335
-77 726 1 1063 93 402 324 808 633 1112 352 347 835 584 1306 641 50 6 104 13
120 15 71 8 310 5 411 -5z"/>
<path d="M27690 21205 l0 -3275 505 0 505 0 2 2091 3 2092 340 -354 c187 -195
1113 -1161 2059 -2147 1359 -1418 1723 -1792 1740 -1790 l21 3 3 3278 2 3277
-510 0 -510 0 0 -2091 c0 -1175 -4 -2089 -9 -2087 -4 2 -930 965 -2056 2141
-1583 1652 -2053 2137 -2072 2137 l-23 0 0 -3275z"/>
<path d="M16060 21150 l0 -3220 1940 0 1940 0 -2 498 -3 497 -1432 3 -1433 2
-2 2718 -3 2717 -502 3 -503 2 0 -3220z"/>
<path d="M7564 16401 c-8 -8 -4 -6426 4 -6439 7 -10 114 -12 503 -10 l494 3 3
1363 2 1362 1215 0 1215 0 0 500 0 500 -1212 2 -1213 3 -3 857 -2 858 1407 2
1408 3 3 497 2 498 -1911 2 c-1051 2 -1913 1 -1915 -1z"/>
<path d="M12497 16178 c-4 -116 -7 -1563 -7 -3215 l0 -3003 505 0 505 0 0
1245 0 1245 395 0 395 0 43 -58 c23 -32 89 -126 147 -210 91 -131 458 -660
550 -792 17 -25 102 -146 188 -270 85 -124 239 -345 341 -492 102 -147 249
-358 325 -468 l139 -200 620 0 620 0 -19 23 c-11 12 -30 38 -44 57 -13 19
-100 139 -191 265 -265 364 -388 533 -458 630 -35 50 -88 122 -116 160 -28 39
-81 111 -117 160 -35 50 -119 164 -185 255 -66 91 -168 233 -228 315 -59 83
-149 206 -200 275 -154 211 -271 374 -290 402 -17 27 -17 28 7 37 12 6 57 24
98 41 41 17 108 49 149 71 72 39 266 169 306 206 11 10 52 47 92 83 171 157
352 418 451 650 49 114 101 296 123 435 18 104 18 494 1 595 -74 441 -267 815
-582 1128 -308 307 -721 521 -1155 601 -198 36 -358 41 -1396 41 l-1006 0 -6
-212z m2248 -811 c391 -85 691 -334 819 -678 76 -204 76 -474 0 -678 -136
-365 -448 -626 -844 -708 -61 -12 -183 -16 -647 -20 l-573 -5 0 1057 0 1057
588 -5 c478 -4 600 -7 657 -20z"/>
<path d="M18250 13175 l0 -3215 1910 0 1910 0 0 500 0 500 -1407 2 -1408 3 -3
884 c-2 701 0 886 10 893 7 4 556 8 1221 8 l1207 0 -2 498 -3 497 -1215 5
-1215 5 0 820 0 820 1408 3 1407 2 0 495 0 495 -1910 0 -1910 0 0 -3215z"/>
<path d="M23430 13175 l0 -3215 1910 0 1910 0 0 500 0 500 -1407 2 -1408 3 -3
884 c-2 701 0 886 10 893 7 4 557 8 1222 8 1097 0 1208 1 1202 16 -3 9 -6 233
-6 500 l0 484 -1212 2 -1213 3 0 820 0 820 1408 3 1407 2 -2 493 -3 492 -1907
3 -1908 2 0 -3215z"/>
</g>
</svg>
